PathFileType	4	(X/Y/Z)	C:\Users\dbl\Desktop\20210112\20210112\bx_n_0_1802.trc
DataRate	CameraRate	NumFrames	NumMarkers	Units	OrigDataRate	OrigDataStartFrame	OrigNumFrames
50.00	50.00	       7	43	mm	50.00	213	       425
Frame#	Time	Top.Head			R.Acromium			L.Acromium			Sternum			R.ASIS			L.ASIS			V.Sacral			R.Thigh.Upper			R.Thigh.Front			R.Thigh.Rear			R.Knee.Lat			R.Knee.Med			R.Shank.Upper			R.Shank.Front			R.Shank.Rear			R.Ankle.Lat			R.Midfoot.Lat			R.Toe.Lat			R.Toe.Tip			R.Toe.Med			R.Ankle.Med			R.Midfoot.Sup			R.Heel			L.Thigh.Upper			L.Thigh.Front			L.Thigh.Rear			L.Knee.Lat			L.Knee.Med			L.Shank.Upper			L.Shank.Front			L.Shank.Rear			L.Ankle.Lat			L.Midfoot.Lat			L.Toe.Lat			L.Toe.Tip			L.Toe.Med			L.Ankle.Med			L.Midfoot.Sup			L.Heel			origin1 front left			origin2 front right			origin 3 back right			origin 4 back leftt			
		X1	Y1	Z1	X2	Y2	Z2	X3	Y3	Z3	X4	Y4	Z4	X5	Y5	Z5	X6	Y6	Z6	X7	Y7	Z7	X8	Y8	Z8	X9	Y9	Z9	X10	Y10	Z10	X11	Y11	Z11	X12	Y12	Z12	X13	Y13	Z13	X14	Y14	Z14	X15	Y15	Z15	X16	Y16	Z16	X17	Y17	Z17	X18	Y18	Z18	X19	Y19	Z19	X20	Y20	Z20	X21	Y21	Z21	X22	Y22	Z22	X23	Y23	Z23	X24	Y24	Z24	X25	Y25	Z25	X26	Y26	Z26	X27	Y27	Z27	X28	Y28	Z28	X29	Y29	Z29	X30	Y30	Z30	X31	Y31	Z31	X32	Y32	Z32	X33	Y33	Z33	X34	Y34	Z34	X35	Y35	Z35	X36	Y36	Z36	X37	Y37	Z37	X38	Y38	Z38	X39	Y39	Z39	X40	Y40	Z40	X41	Y41	Z41	X42	Y42	Z42	X43	Y43	Z43	

213	4.240	-430.13007	117.94171	1516.98218	-528.71198	-62.70133	1236.45862	-546.88513	289.22009	1237.00073	-581.06067	106.93690	1030.49573	-777.55884	2.59769	837.59033	-780.67792	239.80052	851.69043	-973.55731	93.89851	901.12036	-785.98901	-80.81445	746.89795	-674.73523	-17.80701	764.60504	-703.80627	-73.48586	666.34369	-599.58356	-46.90545	568.85590	-562.05121	64.71258	549.89142	-587.13660	-46.52326	529.30450	-542.90552	2.46127	476.72824	-651.91821	-50.33863	466.13254	-748.10278	-13.21965	208.62549	-649.92670	-67.89647	162.42380	-609.80347	-75.08267	159.07423	-552.79108	-35.41720	167.40744	-597.28851	23.00694	167.90784	-670.40643	55.12877	155.76183	-704.04236	74.31168	208.83112	-788.26251	47.32898	178.23935	-808.38153	291.58228	727.53174	-665.77911	244.97081	756.25439	-694.78064	295.15796	649.83093	-619.13452	274.18732	574.47882	-540.60797	173.50053	550.78406	-587.04688	277.55606	533.24304	-533.28687	233.79829	490.59760	-640.51691	277.81082	472.92810	-754.12732	224.30263	206.34541	-655.05609	293.68179	154.74760	-618.51544	302.21564	156.13625	-551.60181	252.03194	165.30939	-587.50946	215.73056	176.13745	-672.11139	168.15793	156.14653	-696.94836	150.98129	209.53577	-787.28296	171.27216	189.82034	-528.18829	304.19333	146.60942	-517.87415	-72.82088	143.23126	-875.88672	-78.83472	141.40993	-882.79529	296.16116	144.93465	
214	4.260	-426.46524	119.08601	1507.28125	-526.44934	-61.70972	1227.69604	-544.38824	289.86984	1227.69507	-580.55853	107.41913	1021.93286	-779.58728	3.49090	831.83191	-782.15552	240.12677	845.47931	-975.35437	94.20149	896.12909	-787.27502	-80.46906	743.58868	-676.46924	-16.62799	762.44843	-703.99384	-73.00281	664.19122	-598.53558	-46.30897	568.08844	-561.20526	65.60728	549.48535	-585.91553	-45.90678	528.73615	-541.72839	3.38846	476.19022	-650.77216	-49.78120	465.83417	-747.90833	-12.79310	208.53136	-649.79303	-67.60522	162.68134	-609.75995	-74.70801	159.52184	-552.79358	-35.28706	167.41171	-597.30121	23.21321	167.59216	-670.32977	55.19143	155.51701	-703.94092	74.82848	208.57938	-788.28638	47.52705	178.25014	-809.71899	292.12186	723.73853	-667.51160	245.19659	754.18512	-695.15039	295.67358	647.47827	-618.43329	274.90292	573.21851	-539.67877	173.97116	550.26617	-586.00122	278.16428	532.47247	-532.26355	234.30861	489.97958	-639.52222	278.37210	472.25580	-754.04181	224.18655	206.37743	-655.04736	293.67236	154.76456	-618.53424	302.18335	156.14790	-551.57996	252.05197	165.27742	-587.45251	215.71861	176.04417	-671.92133	167.99812	156.01834	-696.80798	150.93500	209.30327	-787.25714	171.12732	189.88280	-528.20007	304.15903	146.56050	-517.85834	-72.77924	143.25586	-875.90515	-78.86517	141.41914	-882.84045	296.17511	144.97934	
215	4.280	-423.07825	120.13219	1497.82214	-524.30939	-60.63288	1219.03540	-542.07568	290.37039	1218.65662	-580.00134	107.85918	1013.56982	-781.59406	4.35963	826.22095	-783.60352	240.54935	839.25134	-977.09747	94.69287	891.24823	-788.57819	-79.98146	740.43628	-678.26929	-15.34798	760.38623	-704.24469	-72.46021	662.18280	-597.61035	-45.68134	567.36456	-560.51306	66.51686	549.11914	-584.84631	-45.23585	528.23212	-540.68890	4.32956	475.65756	-649.74518	-49.19384	465.49808	-747.57672	-12.44633	208.56796	-649.65088	-67.26450	162.94852	-609.70251	-74.37334	160.08765	-552.82758	-35.11989	167.46683	-597.31628	23.37722	167.30757	-670.28223	55.22045	155.21652	-703.91559	75.43935	208.35986	-788.32373	47.72480	178.25230	-810.93188	292.69891	720.05487	-669.15289	245.39948	752.14783	-695.43878	296.15945	645.20740	-617.68268	275.49402	572.00726	-538.86591	174.34398	549.69470	-584.99689	278.72031	531.74921	-531.29370	234.63313	489.39215	-638.57214	278.84235	471.67566	-754.03699	224.17407	206.50700	-655.02673	293.66083	154.83034	-618.53961	302.14691	156.15323	-551.55811	252.06885	165.24141	-587.40247	215.69473	175.96310	-671.79602	167.89334	155.84023	-696.64380	150.88940	209.09116	-787.26501	171.00565	189.97600	-528.19507	304.13251	146.55196	-517.84503	-72.76100	143.29483	-876.01746	-78.80674	141.41708	-882.79724	296.17746	144.95003	
216	4.300	-419.93555	121.07899	1488.60120	-522.23602	-59.57396	1210.49426	-539.91132	290.82715	1209.88086	-579.38049	108.24564	1005.36987	-783.57880	5.20355	820.75720	-785.05261	241.01552	833.08014	-978.75958	95.36951	886.46735	-789.93372	-79.29940	737.47784	-680.15002	-14.05977	758.44232	-704.62708	-71.89835	660.32635	-596.82361	-45.04112	566.65924	-559.95569	67.34604	548.71906	-583.91760	-44.55713	527.79401	-539.79559	5.18495	475.16742	-648.84326	-48.62824	465.13800	-747.14105	-12.26914	208.83023	-649.53656	-66.89509	163.20557	-609.66443	-74.03142	160.75636	-552.86566	-34.93697	167.58066	-597.33862	23.49380	167.09586	-670.28821	55.27835	154.87865	-703.93616	75.94372	208.19118	-788.34448	47.91407	178.27264	-812.01654	293.29721	716.50354	-670.65961	245.56383	750.18787	-695.60571	296.57703	643.10895	-616.87451	275.90250	570.82697	-538.17889	174.54623	549.12238	-584.04028	279.13492	531.06500	-530.36072	234.72934	488.81381	-637.64355	279.21295	471.19763	-754.06567	224.22099	206.67162	-655.00482	293.64459	154.93367	-618.53046	302.12384	156.13074	-551.53265	252.07040	165.21991	-587.35974	215.66080	175.91290	-671.78070	167.85045	155.65778	-696.44110	150.85849	208.96854	-787.27301	170.89972	190.08977	-528.17523	304.12341	146.58101	-517.84540	-72.78059	143.31534	-876.18884	-78.69009	141.41217	-882.72437	296.15936	144.87912	
217	4.320	-416.99820	121.91556	1479.59802	-520.17755	-58.63343	1202.14026	-537.82574	291.36130	1201.32959	-578.74194	108.55969	997.32996	-785.54126	6.02264	815.44019	-786.50732	241.48773	827.02734	-980.33398	96.17225	881.77679	-791.33112	-78.44125	734.66022	-682.07446	-12.82316	756.56763	-705.15509	-71.31447	658.55005	-596.15625	-44.43030	565.96179	-559.45020	68.06158	548.29834	-583.05969	-43.93273	527.39423	-538.98920	5.89733	474.74219	-648.02039	-48.15545	464.83298	-746.73969	-12.21379	209.24925	-649.46631	-66.51566	163.45798	-609.65515	-73.65868	161.47725	-552.88202	-34.78405	167.71078	-597.36389	23.56726	166.97513	-670.35297	55.38055	154.52451	-703.91394	76.22270	208.01816	-788.33276	48.09122	178.31923	-812.99744	293.93546	713.11841	-672.06091	245.58459	748.32837	-695.68237	296.89987	641.17487	-616.05896	276.06375	569.63818	-537.60767	174.46986	548.65204	-583.09857	279.34308	530.45148	-529.49109	234.62164	488.24603	-636.75171	279.43805	470.77817	-754.06476	224.26085	206.79724	-654.98944	293.61877	155.03937	-618.52734	302.11069	156.09129	-551.51422	252.03888	165.23274	-587.31952	215.60596	175.88724	-671.78638	167.81303	155.52681	-696.26294	150.84460	208.92511	-787.24524	170.81158	190.18588	-528.15918	304.13419	146.61148	-517.84741	-72.81835	143.31458	-876.30084	-78.57818	141.41125	-882.67706	296.12741	144.80548	
218	4.340	-414.25961	122.63526	1470.76392	-518.13489	-57.85136	1193.98169	-535.76135	291.97205	1192.93420	-578.15759	108.81489	989.45972	-787.48108	6.81707	810.26904	-787.96136	241.95142	821.12122	-981.85394	97.04232	877.14703	-792.75049	-77.52040	731.86542	-683.99377	-11.68715	754.68933	-705.78790	-70.71757	656.75818	-595.59479	-43.89469	565.28595	-558.91626	68.69403	547.93024	-582.23236	-43.41871	526.98730	-538.23077	6.48157	474.37601	-647.23029	-47.77559	464.59705	-746.49915	-12.14068	209.63478	-649.42358	-66.13035	163.73578	-609.65900	-73.24744	162.20695	-552.87396	-34.69398	167.80606	-597.38977	23.60563	166.91425	-670.44617	55.49537	154.20535	-703.77661	76.32919	207.79153	-788.29163	48.26268	178.36464	-813.88422	294.63403	709.86884	-673.41260	245.37552	746.53107	-695.69977	297.14566	639.34015	-615.27545	276.02185	568.45905	-537.09955	174.08658	548.34662	-582.13776	279.35672	529.91193	-528.70575	234.37944	487.72116	-635.88959	279.47833	470.36316	-754.00696	224.24907	206.84547	-654.97443	293.57361	155.12129	-618.55688	302.08298	156.07500	-551.51501	251.98582	165.27159	-587.26105	215.50945	175.85866	-671.70660	167.71964	155.45334	-696.19580	150.81949	208.87480	-787.17480	170.74731	190.23972	-528.15887	304.14783	146.62213	-517.83545	-72.83520	143.31396	-876.29181	-78.50259	141.39606	-882.66492	296.09778	144.75160	
219	4.360	-411.73398	123.26094	1462.05859	-516.14673	-57.20868	1185.94006	-533.69519	292.56573	1184.63611	-577.67395	109.07644	981.70374	-789.39783	7.58715	805.24261	-789.40869	242.40575	815.36566	-983.36401	97.94090	872.53571	-794.19751	-76.67690	728.98480	-685.87994	-10.71840	752.76624	-706.46802	-70.17131	654.89966	-595.12695	-43.47788	564.63696	-558.35297	69.24158	547.64795	-581.46765	-43.05974	526.55060	-537.50153	6.96483	474.05893	-646.48315	-47.43938	464.36688	-746.42401	-11.95326	209.85890	-649.38226	-65.75841	164.07104	-609.68195	-72.80235	162.91420	-552.85785	-34.65974	167.84789	-597.42267	23.62156	166.86359	-670.52014	55.58812	153.96562	-703.53668	76.41673	207.56976	-788.24677	48.43658	178.37181	-814.66791	295.37027	706.65576	-674.71521	244.99348	744.72650	-695.64166	297.35294	637.53790	-614.49097	275.98022	567.38843	-536.58710	173.53757	548.14575	-581.13446	279.26273	529.40186	-527.95074	234.06500	487.24146	-635.01013	279.38785	469.92514	-753.91174	224.18846	206.82846	-654.95428	293.50037	155.18393	-618.61969	302.02206	156.10817	-551.52484	251.93669	165.31172	-587.16620	215.35832	175.79303	-671.58875	167.60002	155.39951	-696.22821	150.76526	208.75008	-787.09351	170.70807	190.26704	-528.17023	304.14267	146.61511	-517.81470	-72.81084	143.32791	-876.21411	-78.45579	141.34804	-882.66730	296.07803	144.72295	
